<svg viewBox="0 0 1920 1349" xmlns="http://www.w3.org/2000/svg" xmlns:xlink="http://www.w3.org/1999/xlink"><linearGradient id="a" x1="50%" x2="50%" y1="0%" y2="95%"><stop offset="0" stop-color="#45d0e8"/><stop offset=".479" stop-color="#00aeef"/><stop offset="1" stop-color="#0191c6"/></linearGradient><linearGradient id="b" x1="6%" x2="70%" y1="10%" y2="61%"><stop offset="0" stop-color="#f3ff80"/><stop offset=".517" stop-color="#a4ffd8"/><stop offset="1" stop-color="#71ffdd"/></linearGradient><linearGradient id="c" x1="56%" x2="56%" y1="2%" y2="30%"><stop offset="0" stop-color="#a8e6fd"/><stop offset=".489052192" stop-color="#8cdafe"/><stop offset="1" stop-color="#70ceff"/></linearGradient><g fill="none" fill-rule="evenodd"><path d="m0 392h1920v-392h-1920z" fill="url(#a)" fill-rule="nonzero"/><g fill="#fff" fill-rule="nonzero" transform="translate(346.133693 39)"><path d="m1190.70631 56.162.79 1.819c.01.044.04.082.08.11.03.03.07.048.11.056l1.76.294c.06.006.1.029.14.065s.07.085.09.14c.01.054.02.113 0 .17-.01.055-.04.106-.07.145l-1.25 1.404c-.03.033-.05.075-.06.121-.02.046-.02.095-.01.143l.3 1.999c.01.056 0 .114-.02.166-.02.053-.05.099-.09.132-.04.034-.09.054-.14.059-.05.004-.1-.007-.14-.033l-1.58-.943c-.04-.022-.08-.034-.12-.034s-.08.012-.12.034l-1.58.943c-.04.033-.09.05-.15.048-.05-.001-.1-.02-.15-.055-.04-.035-.07-.083-.09-.14-.02-.056-.03-.118-.02-.177l.31-2c0-.047 0-.096-.02-.142-.01-.046-.03-.088-.06-.121l-1.28-1.419c-.03-.04-.06-.091-.07-.146s-.01-.113.01-.167c.01-.053.04-.101.08-.138.04-.036.08-.06.13-.07l1.76-.293c.04-.008.09-.027.12-.056.03-.028.06-.067.08-.11l.79-1.819c.02-.046.06-.084.1-.11s.09-.038.14-.0370576c.04.0020576.09.0170576.13.0460576.04.028.08.069.1.116z" opacity=".8"/><path d="m755.126307 132.243 1.12 2.589c.03.063.07.119.11.161.05.042.11.069.17.08l2.51.413c.07.011.14.045.2.098.05.053.09.123.11.202.03.079.03.164.01.244s-.06.153-.11.209l-1.81 2.017c-.05.049-.08.109-.1.176s-.02.139-.01.208l.43 2.852c.01.08 0 .162-.02.237-.03.075-.08.14-.13.188-.06.047-.13.076-.2.082s-.14-.011-.2-.048l-2.25-1.347c-.05-.034-.11-.052-.18-.052-.06 0-.12.018-.17.052l-2.25 1.347c-.06.037-.13.054-.2.048s-.14-.035-.2-.082c-.06-.048-.1-.113-.13-.188-.02-.075-.03-.157-.02-.237l.43-2.852c.01-.07 0-.141-.02-.208-.01-.067-.05-.128-.09-.176l-1.82-2.017c-.05-.056-.09-.129-.11-.209s-.01-.165.01-.244.06-.149.12-.202c.05-.053.12-.087.19-.098l2.51-.413c.06-.011.12-.038.17-.08s.09-.097.12-.161l1.12-2.589c.03-.073.08-.134.14-.177s.13-.066.2-.066c.08 0 .15.023.21.066s.11.104.14.177zm-413.201-29.992 1.121 2.586c.026.064.066.119.115.161.05.042.108.069.169.08l2.506.414c.072.01.14.044.196.097s.097.123.119.202.024.163.006.243c-.019.081-.057.153-.11.209l-1.814 2.016c-.044.048-.077.109-.095.176-.019.067-.022.138-.01.207l.428 2.85c.012.08.004.162-.023.237s-.072.14-.129.188c-.058.047-.126.076-.197.082s-.142-.011-.205-.048l-2.242-1.346c-.055-.034-.116-.051-.179-.051-.062 0-.123.017-.178.051l-2.242 1.331c-.063.037-.134.054-.205.048s-.139-.035-.197-.082c-.057-.048-.102-.113-.129-.188s-.035-.157-.023-.237l.428-2.85c.011-.069.006-.141-.014-.208-.019-.067-.053-.127-.098-.175l-1.814-2.016c-.053-.056-.091-.128-.109-.209-.019-.08-.017-.164.005-.243s.064-.149.12-.202c.055-.053.123-.087.195-.098l2.507-.413c.062-.011.12-.038.171-.08.05-.042.091-.097.119-.161l1.122-2.586c.032-.073.082-.133.144-.175.061-.041.131-.062.203-.061034.071.002034.141.026034.2.070034.06.045.108.107.139.181z" opacity=".5"/><path d="m975.996307 73.243 1.24 2.862c.03.07.07.13.13.176.05.045.12.075.18.086l2.76.455c.07.013.15.05.21.108s.1.134.12.219c.03.085.03.176.01.263s-.06.165-.11.227l-2.02 2.222c-.05.055-.09.122-.11.196-.02.073-.02.151-.02.228l.48 3.147c.01.087 0 .177-.03.26-.03.082-.08.153-.14.205s-.14.083-.22.09c-.07.006-.15-.013-.22-.054l-2.47-1.48c-.05-.039-.12-.059-.19-.059s-.14.02-.2.058l-2.43 1.489c-.07.043-.14.063-.22.058s-.16-.036-.22-.088c-.07-.052-.11-.125-.14-.208-.03-.084-.04-.175-.03-.264l.47-3.146c.01-.077.01-.156-.01-.23s-.06-.141-.11-.195l-2.02-2.22c-.06-.063-.1-.143-.11-.23-.02-.087-.02-.179 0-.264.03-.086.07-.161.13-.219.06-.057.14-.094.22-.105l2.75-.456c.07-.011.13-.042.19-.087.05-.046.1-.106.13-.175l1.28-2.869c.03-.074.09-.135.15-.178s.14-.065.21-.065.15.022.21.065.12.104.15.178zm-970.55600018-11 1.233 2.862c.03.07.074.13.129.176.056.045.12.075.187.086l2.754.455c.078.013.15.05.21.108.05899998.058.10299998.134.12699998.219s.027.176.008.263c-.02.087-.059.165-.11599998.227l-2.02 2.222c-.047.055-.082.122-.103.196-.021.073-.027.151-.018.228l.471 3.147c.013.087.004.177-.026.26-.029.082-.078.153-.141.205s-.138.083-.215.09c-.078.006-.155-.013-.224-.054l-2.465-1.48c-.059-.039-.127-.059-.195-.059s-.135.02-.195.058l-2.431 1.489c-.069.043-.148.063-.226.058-.079-.005-.154-.036-.218-.088-.065-.052-.114-.125-.144-.208-.03-.084-.039-.175-.025-.264l.471-3.146c.012-.077.008-.156-.014-.23-.021-.074-.058-.141-.107-.195l-2.02-2.22c-.057-.063-.096-.143-.115-.23s-.016-.179.009-.264c.024-.086.07-.161.13-.219.06-.057.134-.094.212-.105l2.754-.456c.067-.011.131-.042.186-.087.055-.046.099-.106.13-.175l1.28-2.869c.036-.074.089-.135.153-.178s.137-.065.211-.065.146.022.21.065.117.104.153.178z" opacity=".3"/><path d="m1096.83631 87.322-1.35 2.576c-.04.064-.09.118-.15.158s-.13.065-.2.074l-2.98.414c-.08.003-.16.032-.23.082-.06.05-.11.119-.14.198-.03.08-.03.166-.01.247s.07.154.13.21l2.16 2c.05.047.09.108.11.175.03.068.03.141.02.211l-.51 2.808c-.01.087 0 .175.04.255.03.08.09.147.16.195s.15.074.24.07503c.08.00097.16-.02303.24-.06903l2.7-1.34c.06-.031.14-.047.21-.047s.14.016.21.047l2.7 1.34c.07.043.15.065.24.063.08-.003.16-.029.23-.076s.13-.114.16-.192c.04-.078.05-.165.05-.251l-.52-2.808c-.01-.071 0-.143.02-.211.03-.067.07-.127.12-.175l2.16-2c.06-.056.1-.13.12-.212s.02-.168-.01-.248c-.02-.079-.07-.148-.14-.198-.07-.049-.15-.077-.23-.079l-2.98-.414c-.07-.009-.14-.034-.2-.074s-.11-.094-.14-.158l-1.35-2.576c-.04-.094-.09-.176-.17-.233-.08-.058-.18-.089-.27-.089-.1 0-.19.03-.27.089-.08.057-.14.139-.17.233zm-1033.9410032-1.322-2.47 3.816-4.413 1.147 2.889 3.506-.26 4.531 4.254-1.645 4.26 1.645-.266-4.531 2.896-3.506-4.42-1.147z"/><path d="m189.609307 17-2.47 3.816-4.414 1.147 2.89 3.506-.26 4.531 4.254-1.645 4.26 1.645-.266-4.53 2.896-3.507-4.421-1.147z" opacity=".5"/><path d="m634.487307 159 2.635 4.404 4.714 1.323-3.089 4.048.285 5.225-4.545-1.904-4.538 1.904.277-5.225-3.082-4.048 4.708-1.323z" opacity=".68"/><path d="m828.236307 0 1.32 2.343 2.35.708-1.54 2.167.14 2.782-2.27-1.012-2.27 1.012.14-2.782-1.54-2.167 2.35-.708z" opacity=".48"/></g><g fill-rule="nonzero" transform="translate(389.289949 104)"><path d="m138.000051 275.993c76.215 0 138-61.783 138-137.996 0-76.214-61.785-137.997-138-137.997-76.215 0-137.99999999 61.783-137.99999999 137.997 0 76.213 61.78499999 137.996 137.99999999 137.996z" fill="#fff"/><path d="m52.812051 29.433c-19.555 24.424-30.187 54.79-30.137 86.078 0 36.599 14.539 71.699 40.419 97.578s60.981 40.418 97.581 40.418c30.896.045 60.906-10.321 85.188-29.425-12.914 16.211-29.321 29.299-47.997 38.289-18.675 8.989-39.139 13.648-59.866 13.630052-36.6 0-71.701-14.539052-97.581-40.419052-25.88-25.879-40.419051-60.979-40.419051-97.578-.01794899-20.919 4.72805101-41.567 13.878051-60.379 9.151-18.812 22.465-35.293 38.934-48.192z" fill="#d1d3d4"/><path d="m42.149051 173.333c4.212-4.828 3.713-12.157-1.116-16.37-4.829-4.212-12.158-3.712-16.371 1.116-4.212 4.829-3.712 12.158 1.116 16.37 4.829 4.213 12.159 3.713 16.371-1.116zm-13.513-88.353c4.104 0 7.431-3.326 7.431-7.43s-3.327-7.431-7.431-7.431-7.431 3.327-7.431 7.431 3.327 7.43 7.431 7.43z" fill="#fff"/><path d="m172.508051 114.656c11.772 0 21.316-9.543 21.316-21.315s-9.544-21.316-21.316-21.316-21.316 9.544-21.316 21.316 9.544 21.315 21.316 21.315z" fill="#d1d3d4"/><path d="m191.344051 96.148c.001-2.799-.549-5.57-1.619-8.156s-2.639-4.936-4.618-6.916c-1.978-1.979-4.327-3.549-6.913-4.621-2.585-1.071-5.357-1.622-8.155-1.622-5.461-.01-10.715 2.085-14.671 5.849 1.977-2.692 4.561-4.878 7.541-6.383 2.981-1.506 6.275-2.286 9.614-2.2790467 5.651.0020467 11.07 2.2490467 15.065 6.2460467s6.24002 9.417 6.24002 15.069c.00398 2.893-.58402 5.756-1.72702 8.414-1.142 2.658-2.816 5.054-4.919 7.041 2.707-3.659 4.166-8.091 4.162-12.642z" fill="#bcbec0"/><path d="m65.470051 106.974c7.948-3.581 11.483-12.924 7.894-20.869-3.589-7.944-12.942-11.482-20.891-7.902-7.948 3.581-11.483 12.924-7.894 20.869 3.589 7.944 12.942 11.482 20.891 7.902z" fill="#d1d3d4"/><path d="m72.879051 94.591c-.003-4.188-1.668-8.203-4.63-11.163-2.962-2.959-6.978-4.622-11.166-4.622-4.042-.005-7.93 1.546-10.859 4.331 1.475-1.986 3.396-3.598 5.609-4.704 2.213-1.107 4.655-1.677 7.129-1.6651856 4.187 0 8.202 1.6631856 11.162 4.6231856s4.6230017 6.975 4.6230017 11.161c.0009983 2.149-.4380017 4.274-1.2910017 6.246s-2.1 3.748-3.666 5.219c2.023-2.725 3.107-6.033 3.089-9.426z" fill="#bcbec0"/><path d="m212.742051 129.915c4.885-1.993 7.226-7.567 5.229-12.451-1.998-4.883-7.578-7.227-12.464-5.234-4.885 1.993-7.226 7.568-5.229 12.451 1.998 4.884 7.578 7.227 12.464 5.234z" fill="#d1d3d4"/><path d="m217.553051 122.296c0-1.255-.247-2.497-.727-3.656s-1.184-2.212-2.071-3.099c-.887-.888-1.94-1.591-3.099-2.071-1.159-.481-2.402-.728-3.656-.728-2.446.001-4.797.94-6.571 2.622.885-1.211 2.043-2.197 3.38-2.877 1.337-.681 2.816-1.037 4.316-1.04 2.534 0 4.964 1.007 6.756 2.798 1.791 1.792 2.798 4.222 2.798 6.756-.001 1.297-.265 2.581-.778 3.773-.513 1.191-1.263 2.266-2.205 3.159 1.202-1.634 1.852-3.609 1.857-5.637z" fill="#bcbec0"/><path d="m33.392051 175.247c5.276 0 9.554-4.277 9.554-9.554 0-5.276-4.278-9.553-9.554-9.553-5.277 0-9.554 4.277-9.554 9.553 0 5.277 4.277 9.554 9.554 9.554z" fill="#d1d3d4"/><path d="m41.823051 166.943c-.003-1.866-.552-3.691-1.58-5.249-1.028-1.557-2.49-2.78-4.205-3.516s-3.609-.954-5.446-.626c-1.838.328-3.539 1.186-4.894 2.47.785-1.072 1.785-1.969 2.936-2.633 1.15-.664 2.427-1.081 3.748-1.223 1.321-.143 2.657-.009 3.923.394 1.267.403 2.435 1.066 3.43 1.946.996.879 1.797 1.957 2.352 3.164.556 1.207.853 2.517.874 3.845.021 1.329-.236 2.647-.754 3.871-.517 1.223-1.284 2.326-2.252 3.236 1.218-1.642 1.874-3.634 1.868-5.679z" fill="#bcbec0"/><path d="m180.398051 40.494c.523-3.229-1.671-6.269-4.901-6.791-3.229-.521-6.271 1.675-6.794 4.904-.522 3.229 1.672 6.27 4.902 6.791 3.229.521 6.271-1.674 6.793-4.904z" fill="#d1d3d4"/><path d="m179.830051 40.333c0-1.569-.623-3.072-1.732-4.181-1.108-1.109-2.612-1.732-4.181-1.732-1.515.013-2.968.61-4.055 1.667.552-.745 1.271-1.349 2.099-1.766.827-.417 1.741-.634 2.668-.6330034 1.568 0 3.072.6220034 4.181 1.7310034s1.732 2.613 1.732 4.181c-.006.796-.172 1.582-.489 2.312-.318.73-.78 1.388-1.359 1.934.749-1.017 1.148-2.25 1.136-3.513z" fill="#bcbec0"/><path d="m143.898051 59.82c6.332 0 11.465-5.132 11.465-11.464s-5.133-11.464-11.465-11.464c-6.331 0-11.464 5.132-11.464 11.464s5.133 11.464 11.464 11.464z" fill="#d1d3d4"/><path d="m154.037051 49.901c0-1.507-.296-2.998-.873-4.39-.577-1.391-1.423-2.656-2.488-3.72-1.066-1.065-2.331-1.909-3.723-2.485-1.392-.575-2.884-.871-4.391-.87-2.941.008-5.766 1.149-7.887 3.185 1.064-1.447 2.453-2.622 4.056-3.432 1.602-.809 3.373-1.23 5.169-1.2280071 1.506-.0009929 2.997.2940071 4.389.8700071 1.391.575 2.656 1.42 3.721 2.485 1.064 1.064 1.909 2.329 2.484 3.72.576 1.392.872 2.883.87001 4.389.00199 1.556-.31401 3.096-.92901 4.526-.616 1.429-1.517 2.718-2.648 3.786 1.47-1.975 2.26-4.374 2.25-6.836z" fill="#bcbec0"/><path d="m28.622051 83.464c3.271 0 5.923-2.652 5.923-5.924 0-3.271-2.652-5.923-5.923-5.923-3.272 0-5.924 2.652-5.924 5.923 0 3.272 2.652 5.924 5.924 5.924z" fill="#d1d3d4"/><path d="m33.872051 78.316c0-.778-.153-1.549-.451-2.267-.298-.719-.734-1.372-1.284-1.922s-1.203-.986-1.922-1.284c-.718-.298-1.489-.451-2.266-.451-1.515.002-2.972.588-4.066 1.635.549-.753 1.27-1.364 2.103-1.783.832-.419 1.752-.634 2.684-.627 1.571 0 3.078.624 4.189 1.735s1.735 2.618 1.735 4.189c-.006.795-.173 1.582-.49 2.311-.317.73-.779 1.388-1.357 1.935.73-1.01 1.124-2.225 1.125-3.471z" fill="#bcbec0"/><path d="m246.072051 91.275c2.27-2.355 2.198-6.102-.161-8.369-2.358-2.267-6.111-2.195-8.381.161-2.27 2.355-2.198 6.103.161 8.369 2.359 2.267 6.111 2.195 8.381-.161z" fill="#d1d3d4"/><path d="m247.035051 87.959c0-1.571-.624-3.078-1.735-4.188-1.111-1.111-2.617-1.735-4.188-1.735-1.514-.002-2.97.579-4.066 1.624.549-.745 1.265-1.351 2.091-1.768s1.739-.633 2.665-.6310195c.777-.0019805 1.547.1500195 2.266.4470195.718.296 1.371.732 1.921 1.281.551.549.987 1.201 1.285 1.919s.451005 1.488.451005 2.265c.000995.805-.163005 1.601-.480005 2.34-.318.74-.783 1.406-1.367 1.959.75-1.017 1.155-2.249 1.157-3.513z" fill="#bcbec0"/><path d="m227.025051 182.147c3.271 0 5.923-2.652 5.923-5.923s-2.652-5.923-5.923-5.923-5.923 2.652-5.923 5.923 2.652 5.923 5.923 5.923z" fill="#d1d3d4"/><path d="m232.247051 177.003c-.01-1.154-.357-2.28-.998-3.239-.641-.96-1.548-1.711-2.61-2.162s-2.233-.582-3.368-.377c-1.136.205-2.187.738-3.024 1.532.488-.662 1.108-1.216 1.821-1.626.713-.409 1.503-.666 2.321-.753s1.645-.003 2.428.247c.784.249 1.506.66 2.123 1.204.616.545 1.112 1.211 1.457 1.958.344.747.529 1.557.543 2.379s-.143 1.639-.461 2.397c-.319.758-.792 1.441-1.389 2.006.759-1.033 1.165-2.284 1.157-3.566z" fill="#bcbec0"/></g><path d="m1920 1020h-1920v-842c72.736 58.673 296.28 79.121 431.081 66.061 134.801-13.061 193.049-66.468 306.641-40.705 93.471 21.201 94.405 61.098 153.87 61.639 83.854.761 98.752-78.427 186.838-76.758 55.77 1.058 64.92 33.075 134.09 34.89 46.16 1.209 54.34-12.724 119.8-27.912 120.46-27.959 260.37-18.658 302.56-11.215 47.69 3.489 181.49 39.406284 285.12 94.754284z" fill="url(#b)" fill-rule="nonzero"/><g transform="translate(74.882 617.056509)"><g fill-rule="nonzero"><path d="m465.554 74.9434908c-120.709 0-218.554 97.6460002-218.554 218.0000002h437c0-120.354-97.846-218.0000002-218.446-218.0000002z" fill="#15ebc6"/><path d="m346 312.943491c0-95.005-77.468-172-173.057-172-95.475.113-172.943 76.995-172.943 172z" fill="#84e491"/><g transform="translate(214 202.943491)"><path d="m7.956 50h27.441l-13.687-50z" fill="#48702a"/><path d="m0 50h17.732l-8.832-32.36z" fill="#48702a"/><path d="m63.243 8.422c-.944 0-1.955 0-2.899.066-.674.067-1.349.067-2.023.133-21.845 1.989-38.768 16.644-38.768 34.416v6.83h57.175v-30.769c0-5.902-6.068-10.676-13.485-10.676z" fill="#8f7477"/><path d="m22.587 49.868h1.888l35.802-41.38c-.675.067-1.349.067-2.023.133zm6.607-.001h2.09c1.821-1.658 3.911-3.514 6.136-5.437 11.057-9.483 28.52-17.308 39.308-21.552v-1.393c-10.788 4.244-29.06 12.268-40.454 22.149-2.63 2.188-4.99 4.31-7.08 6.233z" fill="#735e61"/><path d="m44.5 49.867h1.82c10.721-14.39 24.745-21.618 30.341-24.138v-1.458c-5.192 2.254-20.699 9.814-32.161 25.596z" fill="#735e61"/><path d="m93.112 37.732c-.472-.729-.944-1.392-1.551-1.989l-1.011-.995c-1.012-.928-2.225-1.724-3.506-2.387-.472-.265-1.012-.53-1.551-.729-2.427-.995-5.192-1.526-8.091-1.526-9.574 0-17.395 6.101-17.597 13.661v6.101h35.195v-5.77c0-1.724-.405-3.381-1.147-4.973-.202-.464-.404-.928-.741-1.393z" fill="#ab8a8d"/><path d="m59.872 43.767v1.525l27.239-12.864c-.472-.266-1.011-.531-1.551-.73zm9.507 6.101h2.36l19.822-14.059-1.011-.995zm13.551 0h1.888l9.103-10.743c-.203-.464-.472-.928-.742-1.393z" fill="#735e61"/></g><path d="m181.541 167.536491h-6.439v-4.653h6.439c3.219 0 5.795-2.585 5.795-5.816v-5.428h4.635v5.428c-.128 5.816-4.764 10.469-10.43 10.469z" fill="#6e5260"/><path d="m177.42 139.879491h-4.636v40.064h4.636z" fill="#6e5260"/><path d="m202.144 127.471491c0 15.121-12.233 27.528-27.428 27.528-15.066 0-28.716-12.278-28.716-27.528s13.65-27.5280002 28.845-27.5280002c15.066 0 27.299 12.2780002 27.299 27.5280002z" fill="#ff9d66"/><path d="m191.457 154.870491c10.241 0 18.543-8.332 18.543-18.61 0-10.279-8.302-18.611-18.543-18.611s-18.543 8.332-18.543 18.611c0 10.278 8.302 18.61 18.543 18.61z" fill="#ff9d66"/><path d="m126.734 151.756491h-3.751v-2.67h3.751c1.876 0 3.334-1.437 3.334-3.285v-3.081h2.709v3.081c0 3.285-2.709 5.955-6.043 5.955z" fill="#5e4b54"/><path d="m124.337 135.943491h-2.709v23h2.709z" fill="#5e4b54"/><path d="m138.82 128.756491c0 8.727-7.189 15.812-16.045 15.812-8.857 0-16.775-7.085-16.775-15.812 0-8.728 7.918-15.813 16.775-15.813 8.856.103 16.045 7.085 16.045 15.813z" fill="#5d850a"/><path d="m143.264 135.520491c.958-5.822-3.053-11.307-8.961-12.252-5.907-.945-11.473 3.009-12.432 8.83-.958 5.822 3.053 11.307 8.961 12.252 5.907.945 11.473-3.009 12.432-8.83z" fill="#5d850a"/><path d="m503.46 165.943491c-57.707 0-104.46 46.547-104.46 104h209c0-57.453-46.833-104-104.54-104z" fill="#82b516"/><g transform="translate(292 126.943491)"><path d="m114.292 0c-49.608 0-89.751 42.425-89.751 94.707h34.708c0-32.038 24.717-58.092 55.043-58.092 30.327 0 55.043 26.054 55.043 58.092h34.709c0-52.282-40.143-94.707-89.752-94.707z" fill="#f8c200"/><path d="m228.586 86.609h-228.586v32.391h228.586z" fill="#f8c200"/><path d="m115.344 89.602h-2.279v15.667h2.279zm18.232 0h-2.279v15.667h2.279zm-34.534 0h-2.278v15.667h2.278zm-18.231 0h-2.279v15.667h2.279zm-18.056 0h-2.279v15.667h2.279zm-18.054 0h-2.279v15.667h2.279zm-18.056 0h-2.279v15.667h2.279zm-16.478 0h-2.278v15.667h2.278zm141.464 0h-2.279v15.667h2.279zm16.477 0h-2.279v15.667h2.279zm18.056 0h-2.278v15.667h2.278zm18.056 0h-2.279v15.667h2.279zm18.055 0h-2.279v15.667h2.279z" fill="#604d2b"/></g><path d="m709.42 209.229491c-8.609.287-5.223-8.317-2.128-15.105 3.095-6.787 6.77-15.2 0-16.061-6.771-.764-8.125-4.11-3.579-12.714 5.803-11.09.484-20.363-8.415-13.671-6.48 4.876-1.838-17.304-6.093-22.37-5.03-5.927-14.122-2.103-14.315 6.692-.387 13.957-8.802 4.397-11.414 9.56-4.352 8.604 7.545 19.693-.387 21.414-7.931 1.721-6.287 9.082-3.482 14.722 2.805 5.641 10.35 14.436-1.451 18.164-8.124 2.486 3.482 28.297 5.901 33.555h43.718c.968-1.529 2.999-4.971 5.417-10.229 3.675-7.934 4.933-14.244-3.772-13.957z" fill="#51750a"/><path d="m684.272 154.259491h-1.548v79.252h1.548z" fill="#7aa815"/><path d="m691.829 164.948491-8.995 11.854 1.238.918 8.995-11.854zm-16.74 17.133-1.238.918 8.996 11.854 1.238-.918zm21.764 8.628-14.026 18.878 1.247.905 14.027-18.878zm-26.799 18.166-1.248.906 14.029 18.876 1.247-.906z" fill="#7aa815"/><path d="m664.219 188.357491h-81.151v41.586h81.151z" fill="#e6e0d4"/><path d="m633.665 203.948491h14.412v-5.163h-14.412zm-31.464 0h14.412v-5.163h-14.412zm31.464 14.631h14.412v-5.163h-14.412zm-31.464 0h14.412v-5.163h-14.412z" fill="#1164a2"/><path d="m567.205 157.192491h83.665l13.445 31.165h-83.666z" fill="#22d1cd"/><path d="m583.068 188.357491-15.959-31.165-16.056 31.452v41.203h32.015z" fill="#f6fffc"/><path d="m568.656 202.601491h-39.656v27.342h39.656z" fill="#f7fffc"/><path d="m557.436 188.453491h-18.957l-9.479 14.148h28.436z" fill="#11cacb"/><path d="m568.753 202.601491-11.316-14.148-11.317 14.148v27.246h22.633z" fill="#e6e0d4"/><path d="m551.713 209.770491h11.607v-3.537h-11.607zm-.061 7.791h11.607v-3.537h-11.607z" fill="#1164a1"/><path d="m539.131 209.770491h2.611v-3.537h-2.611zm-6.468 0h2.611v-3.537h-2.611zm6.468 8.113h2.611v-3.537h-2.611zm-6.468 0h2.611v-3.537h-2.611z" fill="#e6e0d4"/><path d="m735.877 215.007491c-.655-1.027-1.31-1.961-2.153-2.802l-1.403-1.4c-1.404-1.308-3.089-2.428-4.867-3.362-.655-.373-1.404-.747-2.153-1.027-3.369-1.401-7.207-2.148-11.231-2.148-13.29 0-24.147 8.591-24.428 19.236v8.591h48.856v-8.124c0-2.428-.562-4.762-1.591-7.003-.281-.654-.562-1.308-1.03-1.961z" fill="#ab8a8d"/><path d="m689.736 223.504491v2.148l37.811-18.115c-.655-.374-1.403-.747-2.152-1.028zm13.198 8.591h3.276l27.516-19.796-1.404-1.401zm18.811 0h2.621l12.634-15.128c-.28-.653-.655-1.307-1.029-1.961z" fill="#735e61"/><path d="m923 279.965491c0-81.596 66.368-147.656 148.208-147.656 81.83 0 148.2 66.179 148.2 147.775h-296.408z" fill="#15ebc6"/><path d="m1210.018 235.643491h-6.41v20.139h6.41z" fill="#00aeef"/><path d="m1229.028 227.318491v8.325h-9.33l5.85-21.039zm0 8.325v10.914h-12.26l2.93-10.914z" fill="#838aa1"/><path d="m1235.328 246.556491h-6.3v9.226h6.3z" fill="#00aeef"/><path d="m1229.028 227.318491 2.37 8.326h-2.37z" fill="#838aa1"/><path d="m1235.448 219.554491v27.002h-6.42v-10.913h2.37l-2.37-8.326v-7.763z" fill="#838aa1"/><path d="m1024.068 341.943491h821.05c0-120.666667 0-190 0-208-169.44595-85.0876748-320.24595 34.937756-346.95 15.549-156.21-113.4080002-474.1 76.571-474.1 192.451z" fill="#82b516"/><path d="m1639.848 128.822491c-13.13.36-7.8-12.858-3.19-23.553 4.61-10.6950002 10.29-23.6740002 0-24.9960002-10.29-1.201-12.31-6.369-5.44-19.828 8.87-17.304.83-31.724-12.66-21.27-9.82 7.571-2.84-27.038-9.23-34.72899995-7.57-9.253-21.42-3.244-21.77 10.45499995-.59 21.631-13.37 6.85-17.28 14.901-6.62 13.459 11.48 30.643-.59 33.287s-9.47 14.06-5.21 22.953c4.26 8.772 15.74 22.4710002-2.24 28.2390002-12.31 3.966 5.2 44.103 8.99 52.274h66.26c1.42-2.403 4.49-7.691 8.16-15.982 5.56-12.258 7.34-22.112-5.8-21.751z" fill="#28a56f"/><path d="m1601.638 43.2614908h-2.37v123.4150002h2.37z" fill="#44cb91"/><path d="m1613.188 60.0034908-13.63 18.456 1.89 1.442 13.63-18.456zm-25.33 26.555-1.9 1.442 13.64 18.4580002 1.89-1.442zm32.91 13.5180002-21.22 29.347 1.9 1.423 21.22-29.348zm-40.62 28.264-1.91 1.422 21.23 29.344 1.91-1.422z" fill="#44cb91"/><path d="m1147.758 167.120491c-10.92.299-6.49-10.671-2.66-19.547 3.84-8.876 8.57-19.646 0-20.743-8.56-.998-10.23-5.286-4.52-16.456 7.38-14.3610002.69-26.3280002-10.53-17.6520002-8.17 6.283-2.37-22.439-7.68-28.821-6.3-7.679-17.81-2.693-18.11 8.676-.49 17.951-11.12 5.685-14.37 12.367-5.51 11.169 9.55 25.4300002-.49 27.6240002s-7.87 11.669-4.33 19.048c3.54 7.281 13.09 18.65-1.87 23.437-10.24 3.291 4.33 36.6 7.48 43.382h55.11c1.18-1.995 3.74-6.383 6.79-13.264 4.63-10.173 6.1-18.35-4.82-18.051z" fill="#28a56f"/><path d="m1115.968 96.1144908h-1.97v102.4210002h1.97z" fill="#44cb91"/><path d="m1125.578 110.007491-11.34 15.317 1.58 1.197 11.34-15.317zm-21.07 22.038-1.57 1.197 11.33 15.318 1.58-1.197zm27.37 11.218-17.65 24.356 1.59 1.18 17.65-24.355zm-33.78 23.456-1.58 1.181 17.65 24.353 1.59-1.181z" fill="#44cb91"/><path d="m1571.458 136.627491c-10.43.286-6.21-10.207-2.54-18.697s8.18-18.7920002 0-19.8420002c-8.18-.954-9.77-5.055-4.32-15.739 7.05-13.737.65-25.184-10.06-16.885-7.8 6.01-2.26-21.463-7.33-27.568-6.02-7.346-17.01-2.576-17.3 8.299-.47 17.17-10.62 5.437-13.72 11.828-5.26 10.684 9.12 24.326-.47 26.424-9.59 2.099-7.52 11.161-4.13 18.2200002 3.38 6.964 12.5 17.839-1.79 22.417-9.78 3.148 4.13 35.009 7.14 41.496h52.64c1.13-1.908 3.57-6.105 6.48-12.687 4.42-9.73 5.83-17.552-4.6-17.266z" fill="#51750a"/><path d="m1541.098 68.7084908h-1.88v97.9680002h1.88z" fill="#82b516"/><path d="m1550.278 81.9984908-10.83 14.65 1.5 1.145 10.83-14.65zm-20.13 21.0790002-1.5 1.144 10.83 14.653 1.5-1.145zm26.15 10.731-16.86 23.296 1.51 1.129 16.86-23.296zm-32.27 22.436-1.51 1.13 16.86 23.293 1.51-1.129z" fill="#82b516"/></g><g transform="translate(1133.498 110.943491)"><path d="m174.49 6.672-47.54 141.328h193.08l47.47-141.328-3.95-6.672z" fill="#34a5ea" fill-rule="nonzero"/><path d="m170.54 0-46.06 135.578h193l46.07-135.578z" fill="#5cb7f9" fill-rule="nonzero"/><path d="m313.54 117.478h-173.88l36.28-104.487 174.82-.001z" fill="#ebfaff" fill-rule="nonzero"/><path d="m297.54 76.811 21.82-.627 23.02-62.299-21.82.627z" fill="#eaeaea"/><path d="m317.14 23.699 21.82-.627 3.42-9.188-21.82.628z" fill="#7bdb00"/><path d="m309.21 45.23 21.82-.627 3.34-9.185-21.75.625z" fill="#32c5ff"/><path d="m300.82 67.982 21.82-.627 3.34-9.185-21.75.625z" fill="#fa6400"/><path d="m310 53.019 13.56-.39.85-2.439-13.49.388zm8.07-21.749 13.49-.388.92-2.369-13.56.389z" fill="#b2b2b2"/><path d="m163.69 89.723h17.37l-2.61 6.459h-17.38z" fill="#fff" stroke="#ace6fd"/><path d="m161 102.074h36.45c1.28 0 1.91.994 1.42 2.201l-1.91 4.685c-.49 1.206-1.91 2.2-3.18 2.2h-36.45c-1.27 0-1.91-.994-1.42-2.2l1.91-4.685c.5-1.207 1.91-2.201 3.18-2.201z" fill="#7ebb00" fill-rule="nonzero"/><path d="m178.8 27.826 1.77 1.774c.07.071.28.071.42 0s.36-.213.36-.355l1.83-4.472c.07-.142 0-.284-.07-.355-.14-.071-.28-.071-.49 0l-3.18 1.775z" fill="#00aeef"/><path d="m184.46 25.199c.56.994 0 2.556-1.42 3.549m2.55-4.4c.91 1.49-.07 3.833-2.12 5.323" stroke="#00aeef" stroke-linecap="round" stroke-width=".5"/><path d="m177.74 27.826h1.42l.63-1.704h-1.41z" fill="#00aeef"/><path d="m188.06 28.394h87.32l1.48-3.621h-87.32z" fill="#9de1fc"/><path d="m209.04 36.131h26.99l-19.36 48.126h-26.99z" fill="#fff"/><path d="m185.23 36.131h26.99l-19.36 48.126h-26.99z" fill="#eba0f9"/><path d="m233.81 41.588h-49.95m47.48 6.176h-49.95m47.4 6.246h-49.94m47.47 6.176h-49.95m47.48 6.246h-49.95m47.4 6.175h-49.94m47.47 6.176h-49.95" stroke="#b249c4" stroke-linecap="square" stroke-width=".5"/><path d="m185.23 36.131h50.8l-19.36 48.126h-50.8z" stroke="#b249c4" stroke-width=".7"/><path d="m211.08 36.912-18.72 46.565m25.08-46.565-18.73 46.565m25.08-46.565-18.72 46.565m25.08-46.565-18.72 46.565m-19.36-46.565-18.72 46.565m25.08-46.565-18.72 46.565m25.08-46.565-18.72 46.565" stroke="#b249c4" stroke-linecap="square" stroke-width=".5"/><g fill-rule="nonzero"><path d="m176.97 15.474h172.94l.85-2.485h-175.21l-36.52 104.63h3.11z" fill="#34a5ea"/><path d="m288.52 6.672c-.57 1.775-2.54 3.266-4.31 3.266s-2.76-1.42-2.12-3.266c.57-1.774 2.54-3.265 4.31-3.265 1.77.071 2.68 1.491 2.12 3.265z" fill="#0b71b0"/><path d="m318.9 135.578h-318.9v12.422h318.9z" fill="#1c95df"/><path d="m211.51 138.914h-19.5v3.691h19.5zm31.79 0h-19.49v3.691h19.49z" fill="#0b71b0"/><path d="m246.7 129.261 1.48-4.33h-36.03l-1.48 4.33z" fill="#fff"/><path d="m273.82 8.305 1.06-3.195h-26.21l-1.06 3.195z" fill="#0b71b0"/></g></g><g fill-rule="nonzero" transform="translate(1256.348 177.296491)"><path d="m0 128.014h85.6c4.93 0 8.91-3.968 8.91-8.882v-110.251c0-4.914-3.98-8.881-8.91-8.881h-72.05c-7.49 0-13.55 6.039-13.55 13.5z" fill="#22d1cd"/><path d="m94.51 30.73c0-2.191-1.78-4.026-4.04-4.026h-77.04c-7.43 0-13.43-5.981-13.43-13.323 0-7.401 6-13.381 13.43-13.381h77.04c2.2 0 4.04 1.776 4.04 4.026z" fill="#16bab6"/><path d="m89.52 20.013h-76.15c-3.68 0-6.71-2.96-6.71-6.691 0-3.671 2.97-6.691 6.71-6.691h76.15z" fill="#fff"/><path d="m89.52 11.842h-76.09c-.36 0-.65-.296-.65-.651s.29-.651.65-.651h76.09c.36 0 .66.296.66.651s-.3.651-.66.651zm0 4.203h-76.09c-.36 0-.65-.296-.65-.651s.29-.651.65-.651h76.09c.36 0 .66.296.66.651s-.3.651-.66.651z" fill="#e3e3e3"/><path d="m94.51 24.039c0-2.191-1.78-4.027-4.04-4.027h-.95v-13.322h.95c2.2 0 4.04 1.776 4.04 4.026z" fill="#6bf4fd"/></g><g fill-rule="nonzero" transform="translate(1185.898 157.535491)"><path d="m0 128.014h85.6c4.93 0 8.91-3.967 8.91-8.882v-110.251c0-4.914-3.98-8.881-8.91-8.881h-72.05c-7.49 0-13.55 6.039-13.55 13.5z" fill="#369ae2"/><path d="m94.51 30.73c0-2.191-1.78-4.026-4.04-4.026h-77.04c-7.43 0-13.43-5.98-13.43-13.323 0-7.401 6-13.381 13.43-13.381h77.04c2.2 0 4.04 1.776 4.04 4.026z" fill="#076fba"/><path d="m89.52 20.013h-76.15c-3.68 0-6.71-2.96-6.71-6.691 0-3.671 2.97-6.69 6.71-6.69h76.15z" fill="#fff"/><path d="m89.52 11.842h-76.09c-.36 0-.66-.296-.66-.651s.3-.651.66-.651h76.09c.36 0 .65.296.65.651s-.29.651-.65.651zm0 4.204h-76.09c-.36 0-.66-.296-.66-.652 0-.355.3-.651.66-.651h76.09c.36 0 .65.296.65.651 0 .356-.29.652-.65.652z" fill="#e3e3e3"/><path d="m94.51 24.039c0-2.191-1.78-4.026-4.04-4.026h-.95v-13.323h.95c2.2 0 4.04 1.777 4.04 4.027z" fill="#6be1fd"/></g><path d="m1222.848 142.070491 10.74 7.732 10.74-7.732v26.634h-21.48zm-118.11 32.022h-109.13v-40.303h82.27z" fill="#ff9d66" fill-rule="nonzero"/><path d="m1032.128 174.092491-36.52-40.303-36.64 40.303v63.654h73.16z" fill="#e6e0d4" fill-rule="nonzero"/><path d="m1103.948 174.091491h-71.82v63.767h71.82z" fill="#c0b295" fill-rule="nonzero"/><path d="m1053.938 218.437491h-6.52v12.013h6.52zm36.07 0h-6.52v12.013h6.52zm-36.07-23.351h-6.52v12.012h6.52zm36.07 0h-6.52v12.012h6.52zm-36.07-17.738h-6.52v6.399h6.52zm36.07 0h-6.52v6.399h6.52zm-112.16 41.089h-6.52v12.013h6.52zm35.96 0h-6.52v12.013h6.52zm-35.96-23.351h-6.52v12.012h6.52zm35.96 0h-6.52v12.012h6.52zm-35.96-23.463h-6.52v12.012h6.52zm35.96 0h-6.52v12.012h6.52z" fill="#076fba" fill-rule="nonzero"/><path d="m1127.498 194.300491-18.99-33.231-19.11 33.231v43.446h38.1z" fill="#e6e0d4" fill-rule="nonzero"/><path d="m1197.068 194.299491h-69.57v43.447h69.57z" fill="#c0b295" fill-rule="nonzero"/><path d="m1178.078 161.069491h-69.57l18.99 33.231h69.57z" fill="#ff9d66" fill-rule="nonzero"/><path d="m1110.568 223.714491h-5.84v10.777h5.84zm0-20.995h-5.84v10.778h5.84zm0-21.105h-5.84v10.777h5.84zm36.53 21.106h-7.19v10.778h7.19zm19.22 0h-7.2v10.778h7.2zm-19.22 20.993h-7.2v10.777h7.2zm19.22 0h-7.2v10.777h7.2zm17.64-21.218h-7.19v10.777h7.19zm0 21.105h-7.19v10.778h7.19z" fill="#076fba" fill-rule="nonzero"/></g><g fill-rule="nonzero"><g transform="translate(1614.88 810)"><path d="m87.96 0c-1.66 0-3.41 0-5.07.092-1.2.092-2.4.185-3.5.277-37.81 3.41-67.13 29.218-67.13 60.557v11.982h99.030574v-54.013c.089426-10.415-10.420574-18.895-23.330574-18.895z" fill="#8f7477"/><path d="m17.52 73h3.32l62.05-72.815c-1.2.092-2.4.184-3.5.276zm11.43 0h3.69c3.23-2.949 6.73-6.175 10.6-9.494 19.09-16.775 49.51-30.508 68.14-37.974v-2.489c-18.72 7.374-50.34 21.568-70.17 38.896-4.51 3.964-8.57 7.651-12.26 11.061z" fill="#735e61"/><path d="m55.51 73h3.13c18.53-25.439 42.87-38.159 52.65-42.491v-2.488c-9.13 3.871-35.96 17.143-55.78 44.979z" fill="#735e61"/><path d="m139.78 51.708c-.74-1.198-1.66-2.396-2.68-3.502-.55-.553-1.1-1.198-1.75-1.751-1.75-1.659-3.78-3.042-6.09-4.24-.83-.461-1.75-.922-2.67-1.291-4.15-1.751-8.94-2.765-14.01-2.765-16.6 0-30.15 10.692-30.43 24.057v10.692h60.94v-10.139c0-3.042-.73-5.991-1.93-8.664-.46-.83-.92-1.659-1.38-2.397z" fill="#ab8a8d"/><path d="m82.06 62.216v2.581l47.2-22.675c-.83-.46-1.75-.921-2.67-1.29zm53.29-15.761-36.79 26.546h4.15l34.39-24.795c-.55-.645-1.1-1.198-1.75-1.751zm-13.19 26.545h3.32l15.68-18.896c-.37-.829-.83-1.659-1.29-2.396z" fill="#735e61"/><path d="m89.99 63.229c-.09-.553-.28-1.198-.46-1.751-.19-.829-.46-1.567-.65-2.304-.92-2.765-2.03-5.438-3.41-7.927-.28-.553-.55-1.106-.92-1.567-2.4-3.963-5.26-7.466-8.67-10.507-.46-.369-.92-.83-1.38-1.199-3.6-3.041-7.75-5.438-12.26-7.281-.56-.185-1.11-.461-1.66-.645-4.52-1.567-9.32-2.489-14.29-2.581h-1.76c-.73 0-1.38 0-2.02.092-.56 0-1.11.092-1.57.092-2.03.184-3.97.553-5.81.922-.55.092-1.11.276-1.66.461-1.01.276-2.12.553-3.13.921-.56.185-1.11.369-1.66.646-2.59 1.014-4.98 2.304-7.29 3.687-.46.276-.83.553-1.2.829-1.29.83-2.49 1.751-3.68 2.765-.37.277-.74.645-1.11 1.014-.09.092-.19.092-.19.184-.27.277-.55.553-.83.83-3.04 2.857-5.71 6.083-7.83 9.678-.28.553-.65 1.014-.92 1.567-2.03 3.687-3.6 7.742-4.52 11.982-.19.645-.28 1.198-.37 1.844-.46 2.58-.74 5.253-.74 8.019h91.09c0-2.673-.27-5.346-.73-7.927-.1-.645-.19-1.291-.37-1.844z" fill="#bcbec0"/><path d="m15.12 39.081c-.27.276-.55.553-.83.829 4.43 10.877 8.39 21.937 11.99 33.09h1.57c-3.42-11.614-7.56-22.951-12.45-34.104-.09.093-.19.093-.28.185zm5.07-3.872c3.69 12.628 7.47 25.163 10.97 37.791h1.94c-3.23-12.996-7.1-25.993-11.71-38.62-.37.276-.83.553-1.2.829zm44.35 12.074c-7.56-4.885-16.04-11.705-21.94-19.724-.56 0-1.11.092-1.57.092 5.16 7.466 12.45 13.826 18.9 18.711 8.94 6.728 18.99 11.705 29.6 15.116-.19-.83-.46-1.567-.65-2.305-8.48-3.041-16.69-7.005-24.34-11.89zm-29.41-18.618c-.55.092-1.11.277-1.66.461 3.87 6.821 7.28 13.733 10.6 20.923 3.51 7.742 7.01 15.577 11.34 23.043h2.22c-4.34-7.743-8.12-15.854-11.9-23.965-3.22-6.913-6.54-14.01-10.6-20.462z" fill="#9b9d9e"/></g><path d="m969.38279 840c430.22261 0 792.67346 27.147544 950.61721 81.304499v173.766421c-137.9219 74.51405-511.45654 127.92908-950.61721 127.92908-460.94492 0-849.587479-58.84463-969.38279-139.16737v-176.390643c135.732417-50.234999 464.351351-67.441987 969.38279-67.441987z" fill="#86d6ff"/><path d="m953.193579 840.006331-1.186744-.006331c103.298755.538204 214.410685 2.495924 332.973035 5.348614 287.33494 10.338858 517.48704 35.677173 635.01914 75.955547l.00099 103.781999c-4.01741 3.4048-7.47447 6.23481-12.41991 8.37384-29.2198 12.61-204.52666 12.6699-237.36833 19.14-49.57665 9.768-166.78682 105.085-208.05853 130.81-11.08917 6.46686-21.88091 12.63621-32.37523 18.50806-111.02268 10.85989-234.08214 17.907-364.44433 20.23436-32.20393-25.65282-70.069152-51.14531-136.71267-61.02242-38.111718-5.6588-87.432562-1.79088-147.962532 11.60375-37.753355 8.867-66.804952 16.29625-150.64936.26625s-96.999315-127-186.88968-152.296c-89.890366-25.296-118.108166 7.296-195.107623-.704-76.999456-8-211.5961222-43.19221-248.0112294-58.122398l-.0005756-54.441602 4.11743169-1.49117c136.72270031-48.532149 458.23589631-65.564136 949.07614731-65.938499z" fill="url(#c)"/><path d="m1500.88 938.409s132.12-72.409 419.12-26.409v53s-419.12-19-419.12-26.591z" fill="#82b516"/><g transform="translate(816.481 725.196)"><path d="m128.91 24.593v114.249h-52.976z" fill="#befff1"/><path d="m135.483 6.701h-3.059v154.848h3.059zm-3.059 43.722h-8.72v1.431h8.72zm0 56.994h-8.72v1.432h8.72z" fill="#fff"/><path d="m138.643 147.301v-134.223l61.246 134.223z" fill="#befff1"/><path d="m136.459 9.955h-4.946c-.716 0-1.367-.586-1.367-1.367v-7.221c0-.716.586-1.367 1.367-1.367h4.946c.716 0 1.366.586 1.366 1.367v7.287c-.065.715-.65 1.301-1.366 1.301z" fill="#fff"/><path d="m114.45 150.019h-29.577v13.019h39.854v-2.823c0-5.647-4.628-10.196-10.277-10.196z" fill="#ff9d66"/><path d="m165.053 160.059h-48.093v2.98h50.996c0-1.647-1.334-2.98-2.903-2.98z" fill="#fff"/><path d="m100.249 151.98h-7.217v6.353h7.217zm9.964 0h-7.217v6.353h7.217zm10.278 6.353h-7.218v-6.353h.863c3.53 0 6.355 2.902 6.355 6.353z" fill="#5e4b54"/><path d="m39.517 158.287.192 16.849 133.988-1.525-.192-16.85z" fill="#ff8762"/><path d="m173.424 156.813.162 16.832 17.593-8.585z" fill="#ffc996"/><path d="m39.084 158.014.088 7.719 133.988-1.525-.088-7.72z" fill="#ff9d66"/><path d="m34.804 157.173.223 19.505 25.086-.286-.222-19.505z" fill="#a1bac7"/><path d="m34.861 158.921.205 15.935-7.176.072155c-2.908.021845-5.218-2.301155-5.29-5.139155l-.059-5.511c-.022-2.906 2.303-5.214 5.143-5.286z" fill="#e6e0d4"/><path d="m181.861 160.766.085 8.831 9.233-4.537z" fill="#ff9d66"/><path d="m0 176.573c8.106-1.435 8.106-10.042 16.332-10.042 8.106 0 8.106 8.607 16.331 8.607 8.106 0 8.106-8.607 16.331-8.607 8.106 0 8.106 8.607 16.331 8.607 8.106 0 8.106-8.607 16.332-8.607 8.106 0 8.106 8.607 16.331 8.607 8.106 0 8.106-8.607 16.331-8.607 8.106 0 8.106 8.607 16.331 10.042z" fill="#ade4ff"/></g><g transform="translate(485.788 819.897)"><path d="m53.319 18.446v85.686h39.797zm-7.312 92.03v-100.667l-46.007 100.667z" fill="#ade4ff"/><path d="m48.381 5.027h2.298v116.135h-2.298z" fill="#fff"/><path d="m50.678 37.818h6.552v1.073h-6.552zm0 42.745h6.552v1.073h-6.552zm-3.031-73.097h3.716c.538 0 1.027-.439 1.027-1.024v-5.417c0-.537-.44-1.025-1.027-1.025h-3.716c-.538 0-1.026.44-1.026 1.025v5.465c.048.537.488.976 1.026.976z" fill="#fff"/><path d="m64.182 112.514h22.219v9.765h-29.94v-2.118c0-4.235 3.477-7.647 7.721-7.647z" fill="#f8c200"/><path d="m26.166 120.044h36.129v2.236h-38.31c0-1.236 1.002-2.236 2.181-2.236z" fill="#fff"/><path d="m74.849 113.985h5.423v4.765h-5.423zm-7.485 0h5.422v4.765h-5.422zm-7.721 4.765h5.423v-4.765h-.649c-2.652 0-4.774 2.176-4.774 4.765z" fill="#5e4b54"/><path d="m120.474 118.715-.144 12.637-100.657-1.144.144-12.637z" fill="#f8a400"/><path d="m19.877 117.609-.122 12.625-13.218-6.439z" fill="#ffc996"/><path d="m120.8 118.51-.067 5.789-100.657-1.144.066-5.789z" fill="#f8c200"/><path d="m124.015 117.879-.167 14.629-18.846-.214.167-14.629z" fill="#a1bac7"/><path d="m123.972 119.191-.154 11.951 5.391.054c2.185.017 3.92-1.726 3.974-3.854l.044-4.134c.017-2.178-1.729-3.91-3.863-3.964z" fill="#e6e0d4"/><path d="m13.539 120.575-.064 6.623-6.938-3.402z" fill="#ff9d66"/><path d="m116.605 132.43c-6.09-1.076-6.09-7.532-12.269-7.532-6.09 0-6.09 6.456-12.269 6.456-6.09 0-6.09-6.456-12.269-6.456-6.089 0-6.089 6.456-12.268 6.456-6.09 0-6.09-6.456-12.269-6.456-6.09 0-6.09 6.456-12.269 6.456-6.09 0-6.09-6.456-12.269-6.456-6.089 0-6.089 6.456-12.268 7.532z" fill="#ade4ff"/></g><g transform="translate(0 1020)"><path d="m1920 329v-329s-135.8 75.01-301.12 116.31c-585.78 146.37-1108.745 58.54-1338.035-16.31 0 0-268.741-89.43-280.845-94v323z" fill="#6cbc6a"/><path d="m409.617 248.93-17.069-29.73s12.238 3.32 18.537 18.53c0 0-8.847-18.53-6.738-38.03 0 0 21.071 19.74 17.486 41.56 0 0-8.516-25.17 4.176-46.09 0 0 9.891 22.07 3.599 45.9 0 0-.792-26.6 17.213-30.76l-6.825 32.33zm382.157-31.8-11.121-26.76s9.749 4.49 13.45 17.83c0 0-5.447-16.42-1.76-32.04 0 0 15.419 19.19 10.281 36.47 0 0-4.513-21.8 8.045-37.03 0 0 5.962 19.46-1.611 38.01 0 0 1.998-21.85 17.273-22.63l-8.862 25.42zm-260.165 39.43s-13.433-.52-15.009-9.12c0 0 6.479-3.96 13.433 0 0 0-4.744-8.96 0-17.25 0 0 7.271 4.13 6.796 12.21 0 0-.634-10.19 9.798-12.21 0 0 2.843 8.25-2.88 13.77 0 0 2.685-1.9 10.078-.35-.384 2.73-1.53 5.27-3.282 7.27-1.753 2.01-4.027 3.37-6.515 3.92-8.783 2.1-12.419 1.76-12.419 1.76zm1027.431-42.32-17.07-29.72s12.24 3.31 18.54 18.52c0 0-8.85-18.52-6.74-38.03 0 0 21.07 19.74 17.48 41.56 0 0-8.51-25.16 4.18-46.09 0 0 9.89 22.07 3.6 45.9 0 0-.79-26.6 17.21-30.76l-6.82 32.33zm-70.66 7.06s-13.43-.51-15.01-9.12c0 0 6.48-3.93 13.43 0 0 0-4.74-8.95 0-17.26 0 0 7.27 4.14 6.8 12.23 0 0-.64-10.16 9.8-12.23 0 0 2.84 8.27-2.85 13.77 0 0 2.69-1.89 10.08-.34 0 0-.94 9.13-9.8 11.19-8.85 2.06-12.45 1.76-12.45 1.76zm-847.971-16.33-14.059-16.46s9.639 1.56 14.851 9.31c0 0-9.006-25.33-4.269-41.76 0 0 9.956 32.62 8.063 40.54 0 0 1.836-31.48 14.823-36.23 0 0-8.142 34.44-8.186 36.74 0 0 7.43-7.4 15.644-8.26 0 0-11.375 11.19-12.958 15.49z" fill="#4a9e3e"/><path d="m0 229c55.168 11.9 112.491 15.86 168.606 11.26 66.707-5.51 81.405-18.88 138.299-23.6 97.155-8.12 122.615 25.1 220.69 34.62 89.637 8.7 88.187-17.12 238.345-31.48 129.956-12.41 235.62-3.06 285.42 1.58 149.79 13.96 160.29 36.59 260.42 29.9 56.97-3.81 52.57-11.06 195.68-33.05 102.48-15.74 154.76-23.61 205.97-22.03 48.16 1.45 119.35 9.75 206.57 42.8v90h-1920z" fill="#b5d153"/><g fill="#fff"><path d="m1920 306c-34.29-17.5-69.06-30.09-107.05-38.26-149.13-31.82-234.41 32.03-395.58 51.59-153.05 18.58-147.16-36.36-363.9-31.23-203.019 4.83-213.888 31.23-375.678 33.95-107.887-12.78-126.671-35.71-229.311-33.95-84.515 1.46-127.183 17.89-233.626 19.69-54.643.92-160.743-11.53-214.855-18.79v40h1920z"/><path d="m683.5 328.5 23.939-26.04s-17.365 2.96-26.351 16.54c0 0 12.576-16.54 9.559-33.95 0 0-29.962 17.62-24.864 37.1 0 0 12.108-22.47-5.937-41.15 0 0-14.062 19.71-5.109 40.98 0 0 1.126-23.74-24.428-27.46l9.707 28.87 41.984 5.11zm654.5.5c-3.95276-3.062344-6.08342-6.925538-7.09-12.51 0 0 14.99-9.31 31.08 0 0 0-10.97-21.06 0-40.49 0 0 16.82 9.66 15.73 28.75 0 0-1.48-23.89 22.66-28.75 0 0 6.53 19.43-6.54 32.4 0 0 6.21-4.46 23.39002-.82 0 0-.96209 13.46544-12.23002 21.42-8 0-53.5 0-67 0zm116.47-.04s-21.83-.85-24.39-15.23c0 0 10.52-6.6 21.82 0 0 0-7.7-14.94 0-28.73 0 0 11.81 6.85 11.04 20.41 0 0-1.03-16.96 15.91-20.41 0 0 4.59 13.79-4.59 22.99 0 0 4.36-3.16 16.42-.58 0 0-1.53 15.23-15.91 18.68-14.38 3.46-20.3 2.87-20.3 2.87z"/></g></g></g><g transform="translate(1177.02 164.662)"><path d="m0 53.834 109.65 54.299 13.54-108.132z" fill="#ff9d66"/><path d="m47.73 101.33-5.75-27.506 81.21-73.823-57.28 86.99z" fill="#fe6f43"/><path d="m107.49 18.192-65.51 55.632 81.21-73.823-57.28 86.99z" fill="#ff8762"/><path d="m47.73 101.329 75.46-101.329-57.28 86.99z" fill="#95261f"/><path d="m29.58 94.107 11.7-9.192-2.46 14.665-23.95 29.814zm22.1 13.077 11.7-9.205-2.46 14.664-23.95 29.815zm-20.67 8.625 11.72-9.203-2.46 14.677-23.95 29.815z" fill="#ffcb05"/></g></g></svg>